<svg xmlns="http://www.w3.org/2000/svg" width="152" height="40" viewBox="0 0 152 40">
  <g id="Webapp_Left_Nav_-_BC_Logo" data-name="Webapp Left Nav - BC Logo" transform="translate(-1026.126 -485.715)">
    <path id="Path_114" data-name="Path 114" d="M79.976,104.771c9.608,0,22.9,5.4,32.542,5.4,6.881,0,13.6-1.832,17.418-4.529a29.238,29.238,0,1,0-57.668-.055A47.723,47.723,0,0,1,79.976,104.771Z" transform="translate(954.613 414.413)" fill="#fff"/>
    <path id="Path_115" data-name="Path 115" d="M295.886,171.385l1.156.478,2.564-1.783Z" transform="translate(778.744 337.049)" fill="#e3a82b"/>
    <path id="Path_116" data-name="Path 116" d="M78.042,90.906,75,89.839l.152-.371,3.422,1.138.015-.008.452-.255.18-.113-3.732-1.583.158-.389,8.329,3.36.275-.114-8.261-4.015.184-.377,8.754,4.063.121-.061-8.488-4.8.174-.361L89,92.6c.1-.185.311-.522.418-.7a109.093,109.093,0,0,0-9.157-7.651,109.262,109.262,0,0,0,10.332,5.96c.188-.235.343-.423.544-.646L80.678,80.382l.281-.287L89.4,87.269l-7.819-7.809.293-.3,8.779,8.461-8.172-9.045.313-.281,7.553,8.065L83.45,77.7l.3-.269L92.584,88.15c.228-.2.418-.344.657-.527a108.723,108.723,0,0,0-5.592-10.461,108.853,108.853,0,0,0,7.3,9.337c.256-.144.516-.282.781-.411l-.044-.029L89.491,73.734l.368-.161,5.13,9.8L90.674,73.215l.385-.17L96.02,84.169,91.841,72.73l.4-.144,3.973,10.3L93.071,72.279l.377-.138L97.579,85.3l-.008.035.01,0c.275-.092.554-.173.835-.249a108.617,108.617,0,0,0-1.252-11.724,108.635,108.635,0,0,0,3.242,11.332c.29-.035.581-.066.876-.086l-.009-.014h.036l-.021-.03-1.112-13.741.4-.012,1.074,11.007-.185-11.034.421-.014.421,12.168.421-12.168.421.015-.185,11.034L104.041,70.8l.4.012-1.112,13.741-.021.03h.006l0,0h.018c.288.018.573.047.856.081a108.62,108.62,0,0,0,3.237-11.318,108.65,108.65,0,0,0-1.25,11.7q.426.112.841.247l4.116-13.11.377.139-3.138,10.607,3.973-10.3.4.144-4.179,11.439,4.961-11.125.385.171-4.317,10.162,5.131-9.8.368.161-6.17,12.281.011,0c.254.123.5.255.749.392a108.917,108.917,0,0,0,7.262-9.3,108.805,108.805,0,0,0-5.564,10.4q.357.269.7.557L120.8,77.513l.3.269-6.894,8.662,7.553-8.065.312.281L113.9,87.7l8.778-8.461.293.3-7.819,7.809,8.439-7.173.28.287-10.329,9.077.006.006c.18.2.354.407.524.618a109.254,109.254,0,0,0,10.255-5.921,109.061,109.061,0,0,0-9.089,7.587c.127.211.332.572.449.79l12.083-6.562.175.361L118.3,91.882l10.032-4.656.184.377-9.344,4.541.179.062,9.509-3.836.158.389-8.838,3.749.165.068,5.889-1.958.888-.618.295.224,1.938-.644.152.371-1.677.588,2.423,1.844.776.432a29.637,29.637,0,0,0-57.757.687l.109-.052.355-.16.218-.1Z" transform="translate(953.51 415.537)" fill="#e3a82b"/>
    <path id="Path_117" data-name="Path 117" d="M70.706,179.864a48.89,48.89,0,0,1,8.015-.87c9.608,0,22.9,5.4,32.541,5.4,7.074,0,13.974-1.936,17.734-4.757a29.666,29.666,0,0,0-.366-12.035l-4.02-2.236-4.717,3.3-3.173-1.232c-1.074.541-7.7,4.961-7.7,4.961l-2.544-1.836-2.729-.539-3.639-2.642-4.174,2.858s-4.657,2.7-4.817,2.7-5.619-4.315-5.619-4.315l-2.515-2.642c-.428.27-2.139,1.052-2.139,1.052l-.088.023-1.655-.511-2.01-1.063-6.106,2.761-.109.052a29.654,29.654,0,0,0-.167,11.58Z" transform="translate(955.91 340.757)" fill="#65799e"/>
    <g id="Group_618" data-name="Group 618" transform="translate(1089.872 493.213)">
      <g id="Group_617" data-name="Group 617" transform="translate(0 0)">
        <rect id="Rectangle_1" data-name="Rectangle 1" width="67.629" height="0.818" transform="translate(10.444 31.684)" fill="#e3a82b"/>
        <g id="Group_616" data-name="Group 616" transform="translate(0 0)">
          <path id="Path_2" data-name="Path 2" d="M417.132,107.62c0-1.369-.1-1.732-1.023-1.806l-.644-.044c-.105-.083-.076-.454.02-.462,1.112-.1,2.512-.148,4.427-.148a8.631,8.631,0,0,1,3.46.518,2.422,2.422,0,0,1,1.565,2.313c0,1.332-.865,2.017-2.1,2.535,0,.185.165.241.391.277a3.18,3.18,0,0,1,2.759,3.09c0,2.146-1.771,3.589-5.477,3.589-.6,0-1.606-.056-2.471-.056-.906,0-1.606.038-2.368.056a.332.332,0,0,1-.041-.463l.371-.056c1.091-.166,1.133-.37,1.133-2.313Zm1.689,2.461c0,.518.021.555,1.071.518,2.1-.074,3.233-.629,3.233-2.368,0-1.813-1.5-2.5-3.068-2.5a2.8,2.8,0,0,0-.947.111c-.206.056-.288.148-.288.481Zm0,4.292a3.318,3.318,0,0,0,.432,2.017,2.137,2.137,0,0,0,1.627.518c1.833,0,3.233-.74,3.233-2.59,0-1.462-.824-3.164-4.1-3.164-1.112,0-1.194.111-1.194.481Z" transform="translate(-404.953 -105.159)" fill="#fff"/>
          <path id="Path_3" data-name="Path 3" d="M525.5,116.157c0-1.675-.035-1.944-1.073-2.023l-.44-.032c-.106-.063-.07-.348.035-.4.879.032,1.478.048,2.216.048.7,0,1.3-.016,2.181-.048.106.048.141.332.035.4l-.44.032c-1.038.079-1.073.347-1.073,2.023v5.626c0,1.675.035,1.9,1.073,2.007l.44.047c.105.063.071.347-.035.4-.88-.032-1.477-.048-2.181-.048-.738,0-1.337.016-2.216.048a.284.284,0,0,1-.035-.4l.44-.047c1.038-.111,1.073-.332,1.073-2.007Z" transform="translate(-490.153 -111.875)" fill="#fff"/>
          <path id="Path_4" data-name="Path 4" d="M554.929,120.084c0,1.659.032,1.9.989,1.975l.527.047c.1.063.066.347-.033.4-.94-.032-1.5-.048-2.159-.048s-1.236.016-2.291.048a.268.268,0,0,1,0-.4l.593-.047c.939-.079,1.021-.316,1.021-1.975V113.02c0-.49,0-.505-.494-.505h-.906a3.5,3.5,0,0,0-2.027.395,2.873,2.873,0,0,0-.741,1.09.326.326,0,0,1-.429-.111,16.127,16.127,0,0,0,.626-2.355.429.429,0,0,1,.313,0c.1.505.643.49,1.4.49h6.674c.89,0,1.038-.031,1.285-.442.083-.032.264-.016.3.047a9.18,9.18,0,0,0-.247,2.4c-.066.126-.346.126-.428.032-.05-.4-.165-.98-.412-1.154a3.4,3.4,0,0,0-1.912-.395h-1.17c-.495,0-.478.015-.478.537Z" transform="translate(-509.825 -110.144)" fill="#fff"/>
          <path id="Path_5" data-name="Path 5" d="M603.767,116.157c0-1.675-.035-1.944-1.073-2.023l-.44-.032c-.105-.063-.07-.348.035-.4.88.032,1.478.048,2.217.048.7,0,1.3-.016,2.18-.048.106.048.141.332.036.4l-.44.032c-1.038.079-1.073.347-1.073,2.023v5.626c0,1.675.035,1.9,1.073,2.007l.44.047c.106.063.07.347-.036.4-.879-.032-1.477-.048-2.18-.048-.739,0-1.337.016-2.217.048a.285.285,0,0,1-.035-.4l.44-.047c1.038-.111,1.073-.332,1.073-2.007Z" transform="translate(-551.6 -111.875)" fill="#fff"/>
          <path id="Path_6" data-name="Path 6" d="M633.7,123.481a6.692,6.692,0,0,1-2.917-.585,6.323,6.323,0,0,1-.5-2.213c.094-.111.374-.142.449-.048a3.238,3.238,0,0,0,3.216,2.355c1.571,0,2.337-.869,2.337-1.817,0-.7-.168-1.47-1.533-2.212l-1.776-.98a3.379,3.379,0,0,1-2.02-2.718c0-1.5,1.384-2.718,3.814-2.718a8.477,8.477,0,0,1,1.739.206,2.933,2.933,0,0,0,.654.095,5.942,5.942,0,0,1,.337,1.928.422.422,0,0,1-.467.047,2.347,2.347,0,0,0-2.543-1.786c-1.833,0-2.225,1.027-2.225,1.754,0,.917.9,1.581,1.589,1.944l1.5.79c1.178.616,2.338,1.533,2.338,3.035C637.682,122.3,636.13,123.481,633.7,123.481Z" transform="translate(-573.649 -110.962)" fill="#fff"/>
          <path id="Path_7" data-name="Path 7" d="M676.247,119.08c-.818,0-.852.032-.852.506v2.229c0,1.659.086,1.881,1.04,1.975l.494.047c.1.063.068.347-.034.4-.921-.032-1.5-.048-2.166-.048-.733,0-1.313.032-1.978.048a.291.291,0,0,1-.034-.4l.29-.047c.955-.158.989-.316.989-1.975v-5.689c0-1.659-.119-1.928-1.006-1.991l-.443-.032c-.1-.063-.068-.348.034-.4.835.016,1.415.048,2.148.048.665,0,1.245-.016,1.978-.048.1.048.136.332.034.4l-.325.032c-.988.095-1.023.332-1.023,1.991v1.817c0,.49.034.506.852.506h4.877c.818,0,.852-.016.852-.506v-1.817c0-1.659-.034-1.9-1.04-1.991l-.324-.032c-.1-.063-.069-.348.034-.4.785.032,1.364.048,2.063.048.665,0,1.245-.016,2.012-.048.1.048.137.332.034.4l-.357.032c-.989.095-1.024.332-1.024,1.991v5.689c0,1.659.035,1.865,1.024,1.975l.409.047c.1.063.068.347-.034.4-.819-.032-1.4-.048-2.063-.048-.7,0-1.313.016-2.063.048a.29.29,0,0,1-.034-.4l.324-.047c1.04-.158,1.04-.316,1.04-1.975v-2.229c0-.474-.034-.506-.852-.506Z" transform="translate(-606.786 -111.875)" fill="#fff"/>
          <path id="Path_8" data-name="Path 8" d="M369.222,173.068a8.309,8.309,0,0,1,5.184-1.622,14.893,14.893,0,0,1,3.4.458,1.452,1.452,0,0,0,.537.076c.019.439.115,1.641.269,2.8a.407.407,0,0,1-.518.039c-.288-1.3-1.152-2.786-3.936-2.786-2.938,0-5.434,1.851-5.434,5.8,0,4.007,2.554,6.22,5.7,6.22a4.091,4.091,0,0,0,4.013-2.729.405.405,0,0,1,.5.077,7.139,7.139,0,0,1-.922,2.614,3.92,3.92,0,0,0-.672.191,11.351,11.351,0,0,1-3.034.439,8.449,8.449,0,0,1-4.781-1.279,6.14,6.14,0,0,1-2.726-5.247A6.324,6.324,0,0,1,369.222,173.068Z" transform="translate(-366.803 -157.237)" fill="#fff"/>
          <path id="Path_9" data-name="Path 9" d="M426.915,187.358a5.614,5.614,0,0,1,5.924-5.579c3.843,0,5.773,2.639,5.773,5.421a5.543,5.543,0,0,1-5.773,5.516C429.145,192.715,426.915,190.2,426.915,187.358Zm10.033.332c0-2.608-1.215-5.421-4.392-5.421-1.731,0-3.977,1.122-3.977,4.583,0,2.339,1.2,5.373,4.476,5.373C435.051,192.226,436.948,190.8,436.948,187.69Z" transform="translate(-413.995 -165.356)" fill="#fff"/>
          <path id="Path_10" data-name="Path 10" d="M533.482,186.751a10.73,10.73,0,0,0-.32-3.271,1.068,1.068,0,0,0-.84-.332l-.42-.032a.274.274,0,0,1,.033-.38c.638.032,1.26.048,1.915.048.706,0,1.159-.016,1.764-.047a.262.262,0,0,1,.034.379l-.4.032a1,1,0,0,0-.839.38,13.3,13.3,0,0,0-.235,3.224v1.786A5.28,5.28,0,0,1,533,192.314a4.581,4.581,0,0,1-3.209,1.154,4.988,4.988,0,0,1-3.141-.869c-.89-.7-1.31-1.849-1.31-3.729v-3.73c0-1.643-.034-1.912-1.007-1.991l-.42-.032c-.1-.063-.068-.332.033-.38.84.032,1.411.048,2.083.048.689,0,1.243-.016,2.066-.047.1.047.135.316.034.379l-.4.032c-.974.079-1.008.348-1.008,1.991v3.414c0,2.544.84,4.22,3.41,4.22,2.435,0,3.36-1.8,3.36-4.2Z" transform="translate(-490.094 -166.108)" fill="#fff"/>
          <path id="Path_11" data-name="Path 11" d="M653.8,184.474c0-1.181-.074-1.485-.91-1.548l-.594-.057c-.068-.061-.1-.381.018-.39,1-.075,2.265-.127,3.992-.127a8.11,8.11,0,0,1,3.119.446,2.1,2.1,0,0,1,1.411,2c0,1.149-.78,1.74-1.894,2.187,0,.16.148.207.353.239a2.8,2.8,0,0,1,2.488,2.666c0,1.852-1.6,3.1-4.938,3.1-.538,0-1.448-.048-2.228-.048-.817,0-1.448.031-2.135.048a.277.277,0,0,1-.037-.4l.334-.048c.984-.144,1.021-.319,1.021-1.995Zm1.523,2.122c0,.447.018.479.965.447,1.894-.064,2.915-.543,2.915-2.043,0-1.565-1.355-2.155-2.766-2.155a2.626,2.626,0,0,0-.854.1c-.186.048-.26.128-.26.415Zm0,3.7a2.762,2.762,0,0,0,.389,1.74,1.983,1.983,0,0,0,1.467.447c1.653,0,2.915-.639,2.915-2.235,0-1.261-.743-2.729-3.694-2.729-1,0-1.077.1-1.077.415Z" transform="translate(-590.883 -165.805)" fill="#fff"/>
          <g id="Group_3" data-name="Group 3" transform="translate(22.108 1.719)">
            <g id="Group_2" data-name="Group 2">
              <path id="Path_12" data-name="Path 12" d="M480.214,123.421l-.44-.038c-.089-.009-.168-.021-.243-.033-.643-.114-.9-.685-1.2-1.216l-1.521-2.642c-.263-.44-.545-1.033-1.145-1.117,1.559-.187,2.967-1.084,2.967-2.625,0-1.778-1.766-2.574-3.549-2.574-1.071,0-2.046.029-3.135.029-.6,0-1.316-.029-1.916-.029-.334,0-.338.068-.338.254,0,.275.116.2.47.218,1.269.071,1.22.307,1.22,1.391v6.926c0,.991.086,1.287-.958,1.38l-.251.026-.442.045a.284.284,0,0,0,.035.395l.652-.025c.578-.017,1.155-.061,1.733-.061s1.137.044,1.708.061h0l.651.022a.284.284,0,0,0,.035-.395l-.445-.042-.247-.024c-1.053-.071-.989-.368-.989-1.384v-2.608c0-.152-.019-.559.094-.678.094-.1.263-.085.413-.085,1.428,0,1.408.136,2.085,1.321l1.84,3.3c.15.254.263.576.639.576h1.6l.647.022A.284.284,0,0,0,480.214,123.421Zm-6.411-5.193c-.319,0-.958.119-.958-.3v-3.031c0-1.185.038-1.355,1.465-1.355,1.671,0,2.7.846,2.7,2.4a1.987,1.987,0,0,1-.864,1.727A3.882,3.882,0,0,1,473.8,118.228Z" transform="translate(-469.664 -113.177)" fill="#fff"/>
            </g>
          </g>
          <path id="Path_13" data-name="Path 13" d="M484.563,185.331c0-1.659-.035-1.913-1.133-1.992l-.436-.031c-.1-.063-.07-.347.035-.4.977.032,1.569.048,2.266.048.68,0,1.272-.016,2.144-.047.1.047.139.331.035.395l-.419.031c-1.028.079-1.063.332-1.063,1.992v5.5c0,1,.052,1.407.366,1.707.192.174.523.364,1.9.364a4.974,4.974,0,0,0,2.127-.205,3.393,3.393,0,0,0,1.15-1.565c.1-.078.436-.016.436.095a11.783,11.783,0,0,1-.732,2.213c-.889-.032-2.545-.047-4.34-.047h-1.6c-.732,0-1.289.016-2.266.047a.286.286,0,0,1-.035-.395l.523-.047c1.011-.095,1.046-.316,1.046-1.975Z" transform="translate(-457.972 -166.247)" fill="#fff"/>
          <path id="Path_14" data-name="Path 14" d="M702.185,185.363c0-1.675-.034-1.944-1.044-2.023l-.428-.031c-.1-.063-.068-.347.035-.4.855.032,1.437.048,2.156.048.684,0,1.266-.016,2.122-.047.1.047.137.331.034.395l-.428.031c-1.009.079-1.044.348-1.044,2.023v5.627c0,1.675.034,1.9,1.044,2.007l.428.047c.1.063.068.347-.034.395-.856-.032-1.438-.047-2.122-.047-.719,0-1.3.016-2.156.047a.289.289,0,0,1-.035-.395l.428-.047c1.01-.111,1.044-.332,1.044-2.007Z" transform="translate(-628.899 -166.247)" fill="#fff"/>
          <path id="Path_15" data-name="Path 15" d="M594.073,192.939c-.088-.009-.252-.022-.252-.022a.668.668,0,0,1-.47-.184c-.222-.235-.2-.906-.2-1.174v-6.925c0-.3-.074-.956.148-1.191a.83.83,0,0,1,.548-.156h0c.125-.009.128-.01.237-.015l.44-.032c.105-.063.07-.348-.035-.4-.235.008-.449,0-.652.011h-1.87c-.2,0-.389,0-.5.218l-3.81,7.914-3.365-7.646c-.111-.268-.129-.487-.481-.487h-1.946c-.2-.006-.427,0-.662-.012-.105.047-.141.332-.035.4l.44.032.255.018c.73.047.775.209.709.976L582,191.694c-.05.746-.091,1.14-.875,1.213,0,0-.165.021-.256.03l-.439.047a.283.283,0,0,0,.035.395c.232-.009.644-.02.644-.02.4-.02.8-.055,1.206-.055.436,0,.873.041,1.31.058h0l.652.022a.284.284,0,0,0,.035-.395l-.439-.048c-.116-.009-.246-.022-.246-.022-1.131-.077-1.105-.873-1.035-1.847l.537-6.908h.13l3.643,8.5c.037.118.092.319.277.319.167,0,.222-.184.277-.3l4.105-8.719h.13v7.6c0,.3.037.922-.278,1.157a2.311,2.311,0,0,1-.7.2c-.073.011-.151.022-.239.031l-.44.047a.284.284,0,0,0,.035.395l.643-.021c.6-.017,1.2-.061,1.808-.061.436,0,1.289.041,1.289.041.2.006.435.028.67.037a.284.284,0,0,0,.035-.395Z" transform="translate(-534.462 -166.193)" fill="#fff"/>
          <path id="Path_19" data-name="Path 19" d="M736.932,192.456l-.059-.047c-.088-.009-.166-.02-.239-.032-.685-.152-.952-.976-1.205-1.562L731.9,182.49c-.035-.1-.1-.315-.245-.315-.192,0-.244.232-.3.364l-3.369,8.308a5.5,5.5,0,0,1-.664,1.31.967.967,0,0,1-.642.237l-.281.028-.414.042a.285.285,0,0,0,.035.4l.652-.024c.461-.006.922-.065,1.383-.065.388,0,.776.041,1.164.059l.652.024a.285.285,0,0,0,.035-.4l-.44-.047-.239-.023c-.405-.045-.911-.117-.911-.562a2.738,2.738,0,0,1,.244-.912l.523-1.243c.262-.6.157-.663.856-.663h2.375c.838,0,.715,0,1.083.846l.558,1.259a2.733,2.733,0,0,1,.244.813c0,.416-.456.444-.882.48l-.264.021-.423.03a.284.284,0,0,0,.036.4l.651-.025c.5-.018,1-.056,1.476-.056.612,0,1.223.042,1.834.059h0c.2.006.031.013.264.021A.284.284,0,0,0,736.932,192.456Zm-4.62-3.912h-2.058c-.072,0-.645.067-.645-.1a.831.831,0,0,1,.054-.2l1.235-3.049c.035-.084.161-.5.3-.5.108,0,.25.436.286.5l1.217,2.848c0,.034.125.3.125.369C732.831,188.594,732.42,188.544,732.312,188.544Z" transform="translate(-648.742 -165.667)" fill="#fff"/>
        </g>
      </g>
    </g>
  </g>
</svg>
